# xmcd CD database file
#
# Track frame offsets:
#	150
#	11930
#	20595
#	31169
#	39341
#	53351
#	63520
#	75818
#	85375
#	93035
#	105064
#	117880
#	129331
#	142349
#
# Disc length: 2057 seconds
#
# Revision: 3
# Processed by: cddbd v1.5.2PL0 Copyright (c) Steve Scherf et al.
# Submitted via: CDex 1.70beta2
#
DISCID=9e08070e
DTITLE=Various Artists Folge 3 - Steirische Harmonika - CD 3
DYEAR=2005
DGENRE=Volksmusik
TTITLE0=Robert Neumaier - Verzauberte Finger
TTITLE1=Fam . Laimer - Auf Geht's
TTITLE2=Das Burggräfler Trio - Akkordeon Ländler
TTITLE3=Jodelwirt Sepp - Seppl Polka
TTITLE4=Urspung Buam - Almrausch Boarischer
TTITLE5=Zillertaler Schürzenjäger - auf der Kegelbahn
TTITLE6=Neueralm Musi - Schachenmasch
TTITLE7=Zellberg Buam - Flotte Harmonika
TTITLE8=Viererspitz Musi - Tanzbod'n Boarischer
TTITLE9=Die Stoamadln - Huamstanzer
TTITLE10=Ensemble Franc Mihelic - Wein nicht beim Abschied
TTITLE11=Donautal Duo - Auf Uraub in Tirol
TTITLE12=Geierländer - Senen Schwiger Boarischer
TTITLE13=Palemiger Spatzen - Harmonika Freunde
EXTD=YEAR: 2005
EXTT0=
EXTT1=
EXTT2=
EXTT3=
EXTT4=
EXTT5=
EXTT6=
EXTT7=
EXTT8=
EXTT9=
EXTT10=
EXTT11=
EXTT12=
EXTT13=
PLAYORDER=
